# xmcd
#
# Track frame offsets:
#	150
#	20850
#	37500
#	52350
#	66900
#	83850
#	99075
#	113250
#	125850
#	139050
#	156225
#	173025
#	189000
#	199425
#	215700
#	228450
#
# Disc length: 3206 seconds
#
# Revision: 0
# Processed by: cddbd v1.4PL0 Copyright (c) Steve Scherf et al.
# Submitted via: audiograbber 1.81.03
#
DISCID=df0c8410
DTITLE=Various Artist - Party Time Country
DYEAR=1999
DGENRE=Country
TTITLE0=Diane Warren - How Do I Live
TTITLE1=Shawn Camp, Benita Hill, Sandy Mason - Two Pina Coladas
TTITLE2=Shania Twain, Mutt Lange - You're Still The One
TTITLE3=Steve Dukes, Jeb Stewart Anderson, Mark Hall - I Like It, I Love It
TTITLE4=Matraca Berg, Gary Harrison - Strawberry Wine
TTITLE5=Jon McElroy, Butch Carr - The Shake
TTITLE6=Jim Brickman, Jack Kugell - Valentine
TTITLE7=Randy Sharp, Jon Vezner - Then What
TTITLE8=Robin Lerner, Annie Roboff, Beth Nielsen Chapman - This Kiss
TTITLE9=Diane Warren - I Don't Want To Miss A Thing
TTITLE10=Shania Twain, Mutt Lange - That Don't Impress Me Much
TTITLE11=Emily Erwin, Martie Seidel - You Were Mine
TTITLE12=Steve Wariner, Rick Carnes - Long-Neck Bottle
TTITLE13=Sara Evans, Tom Shapiro, Tony Martin - No Place That Far
TTITLE14=Stephony Smith, Kathy Majeski, Sunny Russ - Go Away
TTITLE15=Zack Turner, Lonnie Wilson - Texas Size Heartache
EXTD=
EXTT0=
EXTT1=
EXTT2=
EXTT3=
EXTT4=
EXTT5=
EXTT6=
EXTT7=
EXTT8=
EXTT9=
EXTT10=
EXTT11=
EXTT12=
EXTT13=
EXTT14=
EXTT15=
PLAYORDER=
